<?xml version="1.0" encoding="utf-8"?>
<!-- Generator: Adobe Illustrator 25.0.0, SVG Export Plug-In . SVG Version: 6.00 Build 0)  -->
<svg version="1.1" id="Camada_1" xmlns="http://www.w3.org/2000/svg" xmlns:xlink="http://www.w3.org/1999/xlink" x="0px" y="0px"
	 viewBox="0 0 50 50" style="enable-background:new 0 0 50 50;" xml:space="preserve">
<style type="text/css">
	.st0{fill:#1351B4;}
</style>
<g>
	<g>
		<path class="st0" d="M19.5,24.5c0,0.4-0.3,0.7-0.7,0.7h-2.5c-0.4,0-0.7-0.3-0.7-0.7V22c0-0.4,0.3-0.7,0.7-0.7h2.5
			c0.4,0,0.7,0.3,0.7,0.7V24.5z M24.7,22c0-0.4-0.3-0.7-0.7-0.7h-2.5c-0.4,0-0.7,0.3-0.7,0.7v2.5c0,0.4,0.3,0.7,0.7,0.7h2.5
			c0.4,0,0.7-0.3,0.7-0.7V22z M29.9,22c0-0.4-0.3-0.7-0.7-0.7h-2.5c-0.4,0-0.7,0.3-0.7,0.7v2.5c0,0.4,0.3,0.7,0.7,0.7h2.5
			c0.4,0,0.7-0.3,0.7-0.7V22z M19.5,27c0-0.4-0.3-0.7-0.7-0.7h-2.5c-0.4,0-0.7,0.3-0.7,0.7v2.5c0,0.4,0.3,0.7,0.7,0.7h2.5
			c0.4,0,0.7-0.3,0.7-0.7V27z M24.7,27c0-0.4-0.3-0.7-0.7-0.7h-2.5c-0.4,0-0.7,0.3-0.7,0.7v2.5c0,0.4,0.3,0.7,0.7,0.7h2.5
			c0.4,0,0.7-0.3,0.7-0.7V27z M29.3,26.4h-2.5c-0.4,0-0.7,0.3-0.7,0.7v2.5c0,0.4,0.3,0.7,0.7,0.7h2.5c0.4,0,0.7-0.3,0.7-0.7V27
			C29.9,26.7,29.6,26.4,29.3,26.4z M13.7,31.4h-2.5c-0.4,0-0.7,0.3-0.7,0.7v2.5c0,0.4,0.3,0.7,0.7,0.7h2.5c0.4,0,0.7-0.3,0.7-0.7
			v-2.5C14.3,31.7,14,31.4,13.7,31.4z M14.3,27c0-0.4-0.3-0.7-0.7-0.7h-2.5c-0.4,0-0.7,0.3-0.7,0.7v2.5c0,0.4,0.3,0.7,0.7,0.7h2.5
			c0.4,0,0.7-0.3,0.7-0.7V27z M24.1,31.4h-2.5c-0.4,0-0.7,0.3-0.7,0.7v2.5c0,0.4,0.3,0.7,0.7,0.7h2.5c0.4,0,0.7-0.3,0.7-0.7v-2.5
			C24.7,31.7,24.4,31.4,24.1,31.4z M18.9,31.4h-2.5c-0.4,0-0.7,0.3-0.7,0.7v2.5c0,0.4,0.3,0.7,0.7,0.7h2.5c0.4,0,0.7-0.3,0.7-0.7
			v-2.5C19.5,31.7,19.2,31.4,18.9,31.4z M34.5,25.1c0.4,0,0.7-0.3,0.7-0.7V22c0-0.4-0.3-0.7-0.7-0.7H32c-0.4,0-0.7,0.3-0.7,0.7v2.5
			c0,0.4,0.3,0.7,0.7,0.7H34.5z M8.9,40.7h18.9c-0.3-1-0.5-2-0.5-3H8.9c-0.5,0-0.9-0.4-0.9-0.9V19h29.6v8.3c1,0,2.1,0.2,3,0.5v-15
			c0-2.2-1.7-3.9-3.9-3.9h-4.4V6.4c0-0.8-0.6-1.4-1.4-1.4h-2.2c-0.8,0-1.4,0.6-1.4,1.4v2.4h-8.9V6.4c0-0.8-0.6-1.4-1.4-1.4h-2.2
			c-0.8,0-1.4,0.6-1.4,1.4v2.4H8.9C6.7,8.8,5,10.6,5,12.7v24C5,38.9,6.7,40.7,8.9,40.7z M45,37.5c0,4.1-3.3,7.5-7.4,7.5
			s-7.4-3.3-7.4-7.5s3.3-7.5,7.4-7.5S45,33.4,45,37.5z M41.3,35.6c0-0.2-0.1-0.5-0.3-0.6c-0.4-0.4-0.9-0.4-1.3,0l-3.2,3.2L35.3,37
			c-0.4-0.4-0.9-0.4-1.3,0c-0.2,0.2-0.3,0.4-0.3,0.6s0.1,0.5,0.3,0.6l1.9,1.9c0.4,0.4,0.9,0.4,1.3,0l3.9-3.9
			C41.2,36.1,41.3,35.8,41.3,35.6z"/>
	</g>
</g>
</svg>
