<?xml version="1.0" encoding="utf-8"?>
<!-- Generator: Adobe Illustrator 25.4.1, SVG Export Plug-In . SVG Version: 6.00 Build 0)  -->
<svg version="1.1" id="Camada_1" xmlns="http://www.w3.org/2000/svg" xmlns:xlink="http://www.w3.org/1999/xlink" x="0px" y="0px"
	 viewBox="0 0 1172.9 155" style="enable-background:new 0 0 1172.9 155;" xml:space="preserve">
<style type="text/css">
	.st0{fill:#FFFFFF;}
	.st1{fill:#005CB9;}
	.st2{fill:#FFBF3C;}
	.st3{fill:#009845;}
	.st4{fill:#EEEEEE;}
	.st5{fill:#333333;}
	.st6{fill:#0071B8;}
</style>
<g id="Camada_2_00000140016867386137198990000016103913769005510283_">
	<g id="Camada_1-2">
		<path class="st0" d="M1039,10.4c60.4-21,119.4-8,131.4,29s-27.7,84.2-88.1,105.2c-60.6,21-119.7,8-131.6-29S978.3,31.4,1039,10.4"
			/>
		<path class="st1" d="M1112,71.3c0.5,0,1.1,0,1.6,0.3c0.8,0,1.5-0.6,1.6-1.4c0,0,0-0.1,0-0.1c0-1.7-0.2-3.5-0.5-5.2
			c-0.1-0.6-0.5-1.1-1-1.3c-0.5-0.3-1-0.3-1.6-0.5c-0.8-0.2-1.6,0.3-1.8,1c0,0.2-0.1,0.3,0,0.5c0.3,1.8,0.3,3.4,0.5,5.2
			C1110.8,70.5,1111.3,71.2,1112,71.3"/>
		<path class="st1" d="M1112,92c0.5-0.3,1-0.3,1.6-0.5s1-0.5,1-1.3c0.3-1.8,0.3-3.4,0.5-5.2c-0.1-0.8-0.7-1.5-1.6-1.6
			c-0.5,0-1.1,0-1.6,0.3c-0.7,0-1.3,0.5-1.3,1.2c0,0,0,0.1,0,0.1c0,1.7-0.2,3.5-0.5,5.2C1110.1,91.5,1110.9,92.3,1112,92"/>
		<path class="st1" d="M1010.2,77.5v-2.6c-0.1-0.8-0.7-1.5-1.6-1.6h-1.5c-0.7,0-1.3,0.6-1.3,1.3v5.4c0,0.7,0.5,1.3,1.2,1.3
			c0,0,0.1,0,0.1,0h1.5c0.8,0,1.5-0.6,1.6-1.4c0,0,0-0.1,0-0.1V77.5"/>
		<path class="st1" d="M1102.7,59.4c1.3,0.3,2.3,0.5,3.6,0.8c0.8,0.2,1.6-0.3,1.8-1c0-0.2,0.1-0.3,0-0.5c-0.2-2.1-0.5-4.2-1-6.2
			c-0.1-0.5-0.5-0.9-1-1c-1.3-0.2-2.3-0.8-3.6-1c-0.7-0.2-1.5,0.1-1.8,0.9c-0.1,0.2-0.1,0.5-0.1,0.7c0.3,2.1,0.8,4.4,1,6.5
			C1101.7,59,1102.1,59.4,1102.7,59.4"/>
		<path class="st1" d="M1017.5,61.2c-1.3,0.3-2.6,0.5-3.6,0.8c-0.6,0.1-1.1,0.7-1,1.3c-0.3,2.1-0.3,3.9-0.5,6
			c0.1,0.8,0.7,1.5,1.5,1.6c1.3,0,2.3-0.3,3.6-0.3c0.7,0,1.3-0.5,1.3-1.2c0,0,0-0.1,0-0.1c0-2.1,0.2-4.2,0.5-6.2
			C1019.1,62.1,1018.4,61.4,1017.5,61.2"/>
		<path class="st1" d="M1017.2,84.8c-1.3,0-2.6-0.3-3.6-0.3c-0.8,0-1.5,0.6-1.5,1.4c0,0,0,0.1,0,0.1c0,2,0.2,4,0.5,6
			c0.1,0.6,0.5,1.1,1,1.3c1.3,0.3,2.3,0.5,3.6,0.8c0.8,0.2,1.6-0.3,1.8-1c0-0.2,0.1-0.3,0-0.5c-0.2-2.1-0.2-4.2-0.5-6.2
			C1018.5,85.4,1017.9,84.8,1017.2,84.8"/>
		<path class="st1" d="M1102.7,77.5v3.4c0.1,0.8,0.7,1.5,1.6,1.6c1.3,0,2.6-0.3,3.6-0.3c0.7,0,1.3-0.6,1.3-1.3v-6.2
			c0-0.7-0.5-1.3-1.2-1.3c0,0-0.1,0-0.1,0c-1.3,0-2.6-0.3-3.6-0.3c-0.8,0-1.5,0.6-1.6,1.4c0,0,0,0.1,0,0.1V77.5"/>
		<path class="st1" d="M1097,44.6c-0.3-1.3-0.5-2.3-0.8-3.6c-0.1-0.5-0.5-0.9-1-1c-1.8-0.5-3.6-1-5.7-1.5c-0.9-0.1-1.7,0.5-1.8,1.3
			c0,0.1,0,0.2,0,0.2c0.3,1.2,0.5,2.4,0.5,3.6c0.1,0.6,0.5,1.1,1,1.3c1.9,0.3,3.8,0.7,5.7,1.3c0.7,0.4,1.6,0.1,1.9-0.6
			C1097,45.3,1097.1,45,1097,44.6"/>
		<path class="st1" d="M1024.2,110.4c0.3,1.3,0.5,2.3,0.8,3.6c0.1,0.5,0.5,0.9,1,1c1.8,0.5,3.6,1,5.7,1.6c0.9,0.1,1.7-0.4,1.8-1.3
			c0-0.1,0-0.2,0-0.3c-0.3-1.2-0.5-2.4-0.5-3.6c-0.1-0.6-0.5-1.1-1-1.3c-1.8-0.3-3.7-0.7-5.4-1.3
			C1025,108.6,1023.9,109.4,1024.2,110.4"/>
		<path class="st1" d="M1030.9,56.3c0.3-2.6,0.5-4.9,0.8-7.3c0.2-0.7-0.2-1.4-0.9-1.6c-0.2,0-0.4,0-0.6,0c-2,0.3-4,0.7-6,1.3
			c-0.5,0.3-1,0.5-1,1c-0.5,2.3-0.8,4.7-1,7c0,1,0.8,1.8,1.6,1.5c1.8-0.3,3.9-0.5,6-0.8c0.7,0,1.3-0.5,1.3-1.1
			C1031,56.3,1031,56.3,1030.9,56.3"/>
		<path class="st1" d="M1090,98.8c-0.3,2.6-0.5,4.9-0.8,7.5c-0.2,0.7,0.3,1.4,0.9,1.6c0.2,0,0.4,0,0.6,0c2-0.3,4-0.7,6-1.3
			c0.5-0.3,1-0.5,1-1c0.5-2.4,0.8-4.8,1-7.2c0-1-0.8-1.8-1.6-1.6c-1.8,0.3-3.9,0.5-6,0.8C1090.4,97.8,1089.9,98.3,1090,98.8"/>
		<path class="st1" d="M1029.6,97.5c-2.1-0.3-3.9-0.5-6-0.8c-0.6-0.2-1.3,0.1-1.6,0.8c-0.1,0.3-0.1,0.5,0,0.8c0.3,2.3,0.8,4.9,1,7.2
			c0.1,0.5,0.5,0.9,1,1c1.8,0.5,3.9,0.8,6,1.3c0.6,0.2,1.3-0.1,1.6-0.8c0.1-0.3,0.1-0.5,0-0.8c-0.3-2.3-0.5-4.9-0.8-7.5
			C1030.8,98.2,1030.3,97.7,1029.6,97.5"/>
		<path class="st1" d="M1092.1,95.7l6.2-0.8c0.8,0,1-0.5,1.3-1.3c0.3-2.3,0.3-4.7,0.5-7c-0.1-0.8-0.7-1.5-1.6-1.6
			c-2.1,0.3-4.2,0.3-6.2,0.5c-0.7,0-1.3,0.5-1.3,1.2c0,0,0,0.1,0,0.1c0,2.4-0.2,4.8-0.5,7.2C1090.2,94.9,1091,95.7,1092.1,95.7"/>
		<path class="st1" d="M1092.3,69.8c2.1,0,4.1,0.3,6.2,0.3c0.8,0,1.5-0.6,1.6-1.4c0,0,0-0.1,0-0.1c0-2.3-0.2-4.7-0.5-7
			c0-0.7-0.5-1.3-1.2-1.3c0,0-0.1,0-0.1,0l-6.2-0.8c-0.8,0-1.5,0.6-1.6,1.4c0,0,0,0.1,0,0.1c0.3,2.3,0.3,4.7,0.5,7.3
			C1091,69,1091.5,69.7,1092.3,69.8"/>
		<path class="st1" d="M1029.9,77.5v-3.6c-0.1-0.8-0.7-1.5-1.6-1.6c-2.1,0-4.1,0.3-6.2,0.3c-0.7,0-1.2,0.6-1.3,1.3v7
			c0,0.7,0.5,1.3,1.2,1.3c0,0,0.1,0,0.1,0c2.1,0,4.2,0.3,6.2,0.3c0.8,0,1.5-0.6,1.6-1.4c0,0,0-0.1,0-0.1V77.5"/>
		<path class="st1" d="M1036.9,121.6c0.3,0.8,0.3,1.6,0.5,2.3c0.1,0.5,0.5,0.9,1,1c2.3,0.5,4.7,0.8,7,1c1,0,1.8-0.8,1.6-1.6
			c0-0.8-0.3-1.6-0.3-2.3s-0.5-1-1.3-1.3c-2.3-0.2-4.7-0.5-7-1c-0.8-0.1-1.5,0.5-1.6,1.3C1036.8,121.2,1036.8,121.4,1036.9,121.6"/>
		<path class="st1" d="M1075.5,113.3c0,1.3-0.2,2.6-0.5,3.9c0,1,0.8,1.8,1.6,1.6c2.6-0.3,5.2-0.8,7.5-1c0.5-0.1,0.9-0.5,1-1l0.8-3.9
			c0.2-0.7-0.3-1.4-0.9-1.6c-0.2,0-0.4,0-0.6,0c-2.6,0.3-4.9,0.8-7.5,1C1076,112,1075.5,112.6,1075.5,113.3"/>
		<path class="st1" d="M1085.8,42.6l-0.8-3.9c-0.1-0.5-0.5-0.9-1-1c-2.5-0.5-5-0.8-7.5-1c-1,0-1.8,0.8-1.6,1.5
			c0.3,1.3,0.3,2.6,0.5,3.9c0,0.7,0.5,1.3,1.1,1.3c0,0,0.1,0,0.1,0c2.5,0.2,5,0.5,7.5,1c0.8,0.1,1.5-0.5,1.6-1.3
			C1085.9,42.9,1085.9,42.8,1085.8,42.6"/>
		<path class="st1" d="M1087.7,55.5c-0.3-2.6-0.5-5.2-0.8-7.8c0-0.5-0.5-1-1.3-1.3c-2.6-0.5-5.3-0.8-8-1c-0.8,0-1.5,0.7-1.6,1.6
			c0.3,2.6,0.3,5.2,0.5,8c0,0.7,0.5,1.3,1.2,1.3c0,0,0.1,0,0.1,0l8.3,0.8C1086.9,57,1087.6,56.4,1087.7,55.5"/>
		<path class="st1" d="M1033.5,99.8l0.8,7.8c0,0.5,0.5,1,1.3,1.3c2.6,0.5,5.3,0.8,8,1c0.8-0.1,1.5-0.7,1.6-1.6
			c-0.3-2.7-0.5-5.3-0.5-8c0-0.7-0.5-1.2-1.1-1.3c-0.1,0-0.1,0-0.2,0l-8.3-0.8c-0.6-0.2-1.3,0.1-1.6,0.7
			C1033.4,99.3,1033.4,99.5,1033.5,99.8"/>
		<path class="st1" d="M1044.7,55c0.3-2.8,0.3-5.4,0.5-8c-0.1-0.8-0.7-1.5-1.6-1.5c-2.7,0.2-5.4,0.5-8,1c-0.5,0-1,0.5-1.3,1.3
			l-0.8,7.8c0.1,0.8,0.7,1.5,1.6,1.5l8.3-0.8C1044,56.2,1044.5,55.7,1044.7,55"/>
		<path class="st1" d="M1042.6,86.1c-2.8,0-5.7-0.3-8.6-0.3c-0.8,0.1-1.5,0.7-1.6,1.6c0,2.6,0.3,5.2,0.5,7.8c0,0.7,0.5,1.3,1.1,1.3
			c0.1,0,0.1,0,0.2,0l8.6,0.8c0.8,0,1.5-0.6,1.6-1.4c0,0,0-0.1,0-0.1c0-2.6-0.3-5.2-0.3-8c0-0.8-0.6-1.5-1.4-1.6
			C1042.7,86.1,1042.6,86.1,1042.6,86.1"/>
		<path class="st1" d="M1076.8,87.4c0,2.6-0.3,5.4-0.3,8c0.1,0.8,0.7,1.5,1.6,1.6l8.6-0.8c0.7,0,1.3-0.5,1.3-1.2c0,0,0-0.1,0-0.1
			c0.3-2.6,0.3-5.2,0.5-7.8c-0.1-0.8-0.7-1.5-1.6-1.6c-2.8,0-5.7,0.3-8.6,0.3C1077.6,86,1077,86.6,1076.8,87.4"/>
		<path class="st1" d="M1078.3,69.2c2.8,0,5.7,0.3,8.6,0.3c0.8-0.1,1.5-0.7,1.6-1.6c0-2.6-0.3-5.2-0.5-7.8c0-0.7-0.5-1.3-1.1-1.3
			c0,0-0.1,0-0.1,0l-8.6-0.8c-0.8,0-1.5,0.6-1.6,1.4c0,0,0,0.1,0,0.1c0,2.6,0.3,5.2,0.3,8C1077,68.4,1077.6,69.2,1078.3,69.2"/>
		<path class="st1" d="M1044.1,67.7c0-2.6,0.3-5.4,0.3-8c-0.1-0.8-0.7-1.5-1.6-1.6l-8.6,0.8c-0.7,0-1.3,0.5-1.3,1.1c0,0,0,0.1,0,0.1
			c-0.3,2.6-0.3,5.2-0.5,7.8c0.1,0.8,0.7,1.5,1.5,1.5c2.8,0,5.7-0.3,8.6-0.3C1043.4,69.2,1044,68.5,1044.1,67.7"/>
		<path class="st1" d="M1077,77.5v4.4c0.1,0.8,0.7,1.5,1.6,1.6c2.8,0,6,0,8.8-0.3c0.7,0,1.3-0.5,1.3-1.2c0,0,0-0.1,0-0.1v-8
			c0-0.7-0.5-1.3-1.2-1.3c0,0-0.1,0-0.1,0c-2.8,0-5.7-0.3-8.8-0.3c-0.8,0-1.5,0.6-1.6,1.4c0,0,0,0.1,0,0.1V77.5"/>
		<path class="st1" d="M1043.9,77.5v-4.1c-0.1-0.8-0.7-1.5-1.6-1.6c-2.8,0-6,0-8.8,0.3c-0.7,0-1.3,0.5-1.3,1.2c0,0,0,0.1,0,0.1v8
			c0,0.7,0.5,1.3,1.1,1.3c0,0,0.1,0,0.1,0c2.8,0,5.7,0.3,8.8,0.3c0.8,0,1.5-0.6,1.6-1.4c0,0,0-0.1,0-0.1V77.5"/>
		<path class="st1" d="M1061.8,123.1v2.6c0.1,0.8,0.7,1.5,1.6,1.6c2.3,0,4.4-0.3,6.7-0.3c0.7,0,1.3-0.5,1.3-1.2c0,0,0-0.1,0-0.1
			c0-0.8,0.3-1.6,0.3-2.6c0-0.8-0.6-1.5-1.4-1.6c0,0-0.1,0-0.1,0c-2.2,0.2-4.5,0.3-6.7,0.3C1062.6,121.9,1061.9,122.4,1061.8,123.1"
			/>
		<path class="st1" d="M1071.6,32.2c0-0.8-0.3-1.5-0.3-2.6c0-0.7-0.5-1.3-1.1-1.3c0,0-0.1,0-0.1,0c-2.2-0.2-4.5-0.3-6.7-0.3
			c-0.8,0.1-1.5,0.7-1.6,1.5v2.6c0,0.7,0.5,1.3,1.2,1.3c0,0,0.1,0,0.1,0c2.3,0,4.4,0.3,6.7,0.3C1070.7,33.8,1071.5,33.1,1071.6,32.2
			"/>
		<path class="st1" d="M1048.5,113.8c0,1.3,0.3,2.8,0.3,4.2c0,0.7,0.5,1.3,1.2,1.3c0,0,0.1,0,0.1,0c2.4,0.2,4.8,0.3,7.2,0.2
			c0.8,0,1.5-0.6,1.6-1.4c0,0,0-0.1,0-0.1v-4.2c0-0.7-0.5-1.3-1.1-1.3c0,0-0.1,0-0.1,0c-2.6,0-4.9-0.3-7.5-0.3
			C1049.3,112.3,1048.6,113,1048.5,113.8"/>
		<path class="st1" d="M1058.9,41v-4.1c-0.1-0.8-0.7-1.5-1.6-1.6c-2.6,0-4.9,0.3-7.2,0.3c-0.7,0-1.3,0.5-1.3,1.2c0,0,0,0.1,0,0.1
			c0,1.3-0.3,2.8-0.3,4.1c0.1,0.8,0.7,1.5,1.6,1.6c2.5-0.2,5-0.3,7.5-0.3C1058.4,42.6,1058.9,41.8,1058.9,41"/>
		<path class="st1" d="M1073.2,54.5c0-2.8-0.2-5.4-0.5-8.3c0-0.7-0.5-1.3-1.2-1.3c0,0-0.1,0-0.1,0c-2.7-0.2-5.3-0.3-8-0.3
			c-0.8,0-1.5,0.6-1.6,1.4c0,0,0,0.1,0,0.1v8.3c0,0.8,0.6,1.4,1.3,1.6c2.8,0,5.4,0,8.3,0.3C1072.7,56,1073.2,55.3,1073.2,54.5"/>
		<path class="st1" d="M1062,100.8v8.3c0.1,0.8,0.7,1.5,1.6,1.6c2.6,0,5.2-0.3,7.8-0.3c0.7,0,1.3-0.5,1.3-1.2c0,0,0-0.1,0-0.1
			c0.3-2.6,0.3-5.4,0.5-8.3c-0.1-0.8-0.7-1.5-1.6-1.6c-2.6,0-5.4,0.2-8.3,0.2C1062.6,99.6,1062,100.2,1062,100.8"/>
		<path class="st1" d="M1047.5,87.6c0,2.8,0.3,5.4,0.3,8.3c0,0.7,0.5,1.3,1.2,1.3c0,0,0.1,0,0.1,0c2.8,0,5.7,0.3,8.6,0.3
			c0.8,0,1.5-0.6,1.6-1.4c0,0,0-0.1,0-0.1v-8.3c-0.1-0.8-0.7-1.5-1.6-1.6h-8.6c-0.8,0-1.5,0.6-1.6,1.4
			C1047.5,87.6,1047.5,87.6,1047.5,87.6"/>
		<path class="st1" d="M1058.9,67.4v-8.3c-0.1-0.8-0.7-1.5-1.6-1.6c-2.8,0-5.7,0-8.6,0.3c-0.7,0-1.3,0.5-1.3,1.2c0,0,0,0.1,0,0.1
			c0,2.6-0.2,5.4-0.2,8.3c-0.1,0.8,0.6,1.5,1.4,1.6c0.1,0,0.1,0,0.2,0h8.6C1058.2,68.9,1058.8,68.3,1058.9,67.4"/>
		<path class="st1" d="M1072.4,71.8h-8.8c-0.8,0-1.5,0.6-1.6,1.4c0,0,0,0.1,0,0.1v8.6c0.1,0.8,0.7,1.5,1.6,1.6h8.8
			c0.7,0,1.3-0.5,1.3-1.1c0,0,0-0.1,0-0.1v-8.6C1073.7,72.7,1073.2,71.8,1072.4,71.8"/>
		<path class="st1" d="M1059.2,24.4L1059.2,24.4c0.1,0.8-0.5,1.5-1.3,1.5c-2.3,0-4.4,0.3-6,0.3c-0.8-0.1-1.5-0.7-1.6-1.5
			c0-0.7,0.5-1.3,1.2-1.3c0,0,0.1,0,0.1,0c1.6,0,4.2-0.3,6-0.3C1058.4,23.1,1059.1,23.6,1059.2,24.4"/>
		<path class="st1" d="M1059.2,130.6L1059.2,130.6c0.1-0.8-0.5-1.5-1.3-1.6c-2.3,0-4.4-0.3-6-0.3c-0.8,0.1-1.5,0.7-1.6,1.6
			c0,0.7,0.5,1.3,1.2,1.3c0,0,0.1,0,0.1,0c1.6,0,4.2,0.3,6.2,0.3C1058.6,132.2,1059.1,131.4,1059.2,130.6"/>
		<path class="st2" d="M1062,9.9c-0.9,0.1-1.5,0.9-1.3,1.8c0.1,0.7,0.6,1.2,1.3,1.3c28.8,6.5,36.5,32.4,54.7,44.6
			c4.3,2.9,9.2,4.8,14.2,5.7c1.6,0.3,2.8,1.7,2.8,3.4c-0.3,28.2-41.4,36-46.6,67.4c-0.2,0.9,0.4,1.8,1.3,1.9c0.3,0.1,0.7,0,1-0.1
			c58-25.4,83.7-65,74.4-94.6C1157.8,21.8,1127.5-4.1,1062,9.9"/>
		<path class="st3" d="M1058.9,145.4c1.8-0.3,1.8-2.9,0-3.4c-28.8-6.5-36.5-32.4-54.7-44.6c-4.3-2.9-9.1-4.8-14.2-5.7
			c-1.6-0.3-2.8-1.7-2.8-3.4c0.3-28.2,41.4-36,46.6-67.4c0.5-1.3-0.8-2.3-2.1-1.8c-58.3,25.6-83.7,65-74.4,94.8
			C963.4,133.2,994.9,158.9,1058.9,145.4"/>
		<path class="st4" d="M1095.7,0.8c-18.1,0-37.6,3.4-56.8,9.9c-60.4,21-99.7,67.9-87.8,104.7c3.9,12.2,13.2,22,26.7,29
			c26.2,13.2,66.1,13,104.2-0.3c60.4-21,99.8-67.9,87.8-104.7c-3.6-11.9-13-22-26.7-28.8C1130.1,4.2,1113.6,0.8,1095.7,0.8
			 M1025.2,155c-18.1,0-34.7-3.4-47.9-9.9c-13.7-7-23.3-17.1-27.2-29.5c-11.9-37.1,28-84.5,88.6-105.7l0.2,0.5l-0.2-0.5
			c38.3-13.2,78.5-13.2,104.9,0c13.7,7,23.3,17.1,27.2,29.5c11.9,37.1-27.7,84.5-88.6,105.7C1063.9,151.5,1044.6,154.8,1025.2,155"
			/>
		<g>
			<path class="st5" d="M35.6,85.9c-4.9,0-9.7-0.8-14.2-2.6c-8.5-3.3-15.2-9.9-18.7-18.2C0.9,60.7-0.1,56,0,51.3
				c-0.1-4.7,0.9-9.4,2.7-13.8c1.7-4.1,4.3-7.9,7.5-11c3.3-3.1,7.1-5.6,11.3-7.2c4.5-1.8,9.3-2.6,14.2-2.6c4.7,0,9.5,0.8,13.9,2.5
				c4.2,1.6,8,4.1,11,7.4L56,31.1c-2.6-2.7-5.7-4.8-9.2-6.1c-3.5-1.3-7.2-1.9-10.9-1.9c-3.9,0-7.8,0.7-11.4,2.1
				c-3.4,1.3-6.5,3.4-9.1,5.9c-2.6,2.6-4.7,5.6-6.1,9c-1.5,3.5-2.2,7.3-2.2,11.1C7,58.8,10,66.1,15.4,71.4c2.6,2.6,5.7,4.6,9.1,5.9
				c3.6,1.4,7.5,2.1,11.4,2.1c3.7,0,7.4-0.6,10.9-1.9c3.5-1.4,6.6-3.5,9.2-6.2l4.6,4.6c-3,3.3-6.8,5.9-11,7.5
				C45.1,85.1,40.4,85.9,35.6,85.9z"/>
			<path class="st5" d="M63.3,85.3l31.1-68.1h7.1l31.1,68.1h-7.6L96.5,21.4h2.9L70.8,85.3H63.3z M75.6,67.1l2.1-5.8h39.6l2.1,5.8
				H75.6z"/>
			<path class="st5" d="M144,85.3V17.2h25.5c5.1-0.1,10.2,0.8,14.9,2.8c3.9,1.7,7.3,4.4,9.6,8c2.3,3.8,3.5,8.2,3.4,12.6
				c0.1,4.4-1,8.7-3.4,12.4c-2.3,3.6-5.7,6.3-9.6,8c-4.7,2-9.8,2.9-14.9,2.8H148l3.2-3.3v24.9L144,85.3z M151.2,61l-3.2-3.4h21.3
				c6.8,0,12-1.5,15.5-4.5s5.3-7.2,5.3-12.5c0-5.5-1.8-9.7-5.3-12.6s-8.7-4.5-15.5-4.5H148l3.2-3.4L151.2,61z M190.5,85.3L173,60.6
				h7.8l17.6,24.7L190.5,85.3z"/>
			<path class="st5" d="M226.6,85.3V23.4h-23.9v-6.2h55v6.2h-23.9v61.9H226.6z"/>
			<path class="st5" d="M254.9,85.3L286,17.2h7.1l31.1,68.1h-7.6L288,21.4h3l-28.6,63.9H254.9z M267.1,67.1l2.1-5.8h39.6l2.1,5.8
				L267.1,67.1z M296.2,11.1c-1.4,0-2.8-0.3-4-1c-1.1-0.6-2.2-1.4-3.2-2.3c-0.9-0.8-1.8-1.6-2.8-2.3c-0.8-0.6-1.8-1-2.8-1
				c-1.4,0-2.7,0.6-3.5,1.7c-1,1.3-1.5,2.9-1.5,4.6h-4.2c0-2.8,0.9-5.5,2.6-7.8c1.5-1.9,3.8-3,6.2-2.9c1.4,0,2.8,0.3,4,1
				c1.2,0.6,2.2,1.4,3.2,2.3c0.9,0.8,1.8,1.6,2.8,2.3c0.8,0.6,1.8,1,2.8,1c1.4,0,2.7-0.5,3.6-1.6c1-1.3,1.5-2.9,1.4-4.5h4.2
				c0.1,2.7-0.8,5.4-2.5,7.6C301,10.1,298.6,11.2,296.2,11.1L296.2,11.1z"/>
			<path class="st5" d="M364.3,85.9c-4.9,0-9.7-0.8-14.2-2.6c-8.5-3.3-15.3-9.9-18.9-18.3c-1.8-4.4-2.7-9-2.7-13.8
				c-0.1-4.7,0.9-9.4,2.7-13.8c3.5-8.4,10.3-15,18.8-18.3c9.2-3.4,19.3-3.4,28.5,0c4.2,1.6,8.1,4.1,11.3,7.2c3.2,3.1,5.8,6.9,7.5,11
				c1.8,4.4,2.7,9.1,2.7,13.8c0.1,4.7-0.9,9.4-2.7,13.8c-1.7,4.1-4.3,7.9-7.5,11c-3.3,3.1-7.1,5.6-11.3,7.2
				C374,85.1,369.2,85.9,364.3,85.9z M364.3,79.5c3.9,0,7.7-0.7,11.3-2.1c3.4-1.3,6.5-3.4,9-5.9c2.6-2.6,4.6-5.6,6-9
				c1.5-3.6,2.2-7.4,2.1-11.2c0-3.8-0.7-7.7-2.2-11.2c-1.4-3.4-3.4-6.4-6-9c-2.6-2.6-5.7-4.6-9-5.9c-3.6-1.4-7.5-2.1-11.3-2.1
				c-3.9,0-7.8,0.7-11.4,2.1c-3.4,1.3-6.5,3.4-9.1,5.9c-8.1,8.3-10.4,20.7-6,31.4c1.4,3.4,3.4,6.4,6,9c2.6,2.6,5.7,4.6,9.1,5.9
				C356.5,78.8,360.4,79.5,364.3,79.5z"/>
		</g>
		<g>
			<path class="st5" d="M0,154.6V104h21.8c5.6,0,10,1.1,13.1,3.4c3.1,2.2,4.8,5.8,4.7,9.6c0.1,2.5-0.6,4.9-1.9,6.9
				c-1.3,1.9-3.1,3.4-5.2,4.3c-2.3,1-4.7,1.5-7.2,1.4l1.2-1.7c2.9-0.1,5.7,0.4,8.4,1.5c2.2,0.9,4.1,2.4,5.5,4.4
				c1.4,2.2,2.1,4.7,2,7.3c0.2,3.9-1.6,7.7-4.7,10c-3.2,2.4-7.9,3.6-14.3,3.6L0,154.6z M5.3,150.2h17.9c4.4,0,7.8-0.8,10.2-2.3
				c2.4-1.5,3.5-3.9,3.5-7.3s-1.2-5.7-3.5-7.2s-5.8-2.3-10.2-2.3H4.8v-4.4h16.7c4.1,0,7.2-0.8,9.4-2.3c3.8-3,4.5-8.4,1.5-12.3
				c-0.4-0.6-1-1.1-1.5-1.5c-2.2-1.5-5.4-2.3-9.4-2.3H5.3V150.2z"/>
			<path class="st5" d="M59.8,149.9h30.4v4.6H54.5V104h34.7v4.6H59.8V149.9z M59.3,126.6H86v4.6H59.3L59.3,126.6z"/>
			<path class="st5" d="M102.9,154.6V104h4.4l34.9,43.9h-2.3V104h5.3v50.6h-4.4l-34.8-43.9h2.3v43.9L102.9,154.6z"/>
			<path class="st5" d="M167,149.9h30.4v4.6h-35.8V104h34.7v4.6H167V149.9z M166.4,126.6h26.7v4.6h-26.8L166.4,126.6z"/>
			<path class="st5" d="M215.3,154.6H210V104h34.7v4.6h-29.4V154.6z M214.8,128.5h26.7v4.6h-26.7V128.5z"/>
			<path class="st5" d="M253.7,99.8l9.9-9h6.9l-11.7,9H253.7z M255.7,154.6V104h5.3v50.6L255.7,154.6z"/>
			<path class="st5" d="M299.5,155c-3.6,0-7.2-0.6-10.5-1.9c-6.3-2.4-11.3-7.3-13.9-13.6c-2.6-6.6-2.6-13.9,0-20.5
				c1.3-3.1,3.2-5.9,5.6-8.2c2.4-2.3,5.3-4.2,8.4-5.4c6.7-2.5,14.1-2.6,20.9-0.1c3.1,1.2,5.9,3.1,8.2,5.5l-3.4,3.4
				c-1.9-2-4.3-3.6-6.9-4.6c-5.4-1.9-11.2-1.9-16.5,0.1c-2.5,1-4.8,2.5-6.8,4.4c-1.9,1.9-3.5,4.2-4.5,6.7c-3.4,8-1.6,17.2,4.5,23.3
				c1.9,1.9,4.3,3.4,6.8,4.4c2.7,1,5.6,1.6,8.5,1.6c2.8,0,5.5-0.5,8.1-1.4c2.6-1,4.9-2.6,6.9-4.6l3.4,3.4c-2.2,2.5-5,4.4-8.2,5.6
				C306.6,154.4,303.1,155,299.5,155z"/>
			<path class="st5" d="M329.5,154.6V104h5.4v50.6L329.5,154.6z"/>
			<path class="st5" d="M373.5,155c-3.6,0-7.2-0.6-10.6-1.9c-6.3-2.4-11.4-7.4-14-13.6c-2.7-6.6-2.7-13.9,0-20.5
				c2.6-6.2,7.7-11.1,14-13.6c6.8-2.5,14.3-2.5,21.2,0c3.1,1.2,6,3.1,8.4,5.4c2.4,2.3,4.3,5.1,5.5,8.2c2.7,6.6,2.7,13.9,0,20.5
				c-1.3,3.1-3.2,5.9-5.6,8.2c-2.4,2.3-5.3,4.2-8.4,5.4C380.7,154.4,377.1,155,373.5,155z M373.5,150.2c2.9,0,5.7-0.5,8.4-1.6
				c2.5-1,4.8-2.5,6.7-4.4c1.9-1.9,3.4-4.2,4.4-6.6c2.1-5.4,2.1-11.3,0-16.7c-1-2.5-2.5-4.7-4.4-6.7c-1.9-1.9-4.2-3.4-6.7-4.4
				c-2.7-1.1-5.5-1.6-8.4-1.6c-2.9,0-5.8,0.5-8.5,1.6c-2.5,1-4.8,2.5-6.8,4.4c-8.2,8.3-8.2,21.7,0,30c1.9,1.9,4.2,3.4,6.8,4.4
				C367.7,149.7,370.6,150.3,373.5,150.2z"/>
		</g>
		<g>
			<path class="st6" d="M420.4,151.6V3.4h50v148.2H420.4z"/>
			<path class="st6" d="M494.5,151.6V3.4h41.1L611,93.6h-19V3.4h48.7v148.2h-41.1l-75.4-90.2h19.1v90.2H494.5z"/>
			<path class="st6" d="M720.1,155c-12.1,0-24.2-1.4-36-4.2c-11.6-2.8-21.1-6.5-28.6-11l16.1-36.4c7.4,4.3,15.4,7.6,23.6,9.8
				c8.2,2.4,16.7,3.7,25.3,3.7c3.8,0.1,7.6-0.3,11.3-1c2.2-0.4,4.3-1.3,6-2.8c1.2-1.1,1.9-2.7,1.9-4.3c0-2.7-1.5-4.8-4.5-6.3
				c-3.7-1.8-7.7-3.1-11.8-3.9c-4.9-1.1-10.2-2.2-16-3.4c-5.9-1.2-11.7-2.8-17.5-4.8c-5.7-1.9-11.1-4.5-16-7.8
				c-4.9-3.3-8.9-7.7-11.8-12.8c-3-5.3-4.5-11.9-4.5-19.8c-0.1-9,2.6-17.7,7.7-25.1c5.2-7.5,12.8-13.6,23.1-18.1s23-6.8,38.2-6.8
				c10,0,19.9,1.1,29.6,3.2c9.2,1.9,18,5.2,26.3,9.7l-15,36.2c-6.8-3.5-13.9-6.2-21.3-8.3c-6.5-1.8-13.2-2.7-20-2.8
				c-3.9-0.1-7.7,0.3-11.5,1.3c-2.8,0.8-4.8,2-6,3.4c-1.1,1.3-1.8,2.9-1.8,4.7c0,2.5,1.5,4.5,4.5,6c3.7,1.7,7.7,3,11.8,3.7
				c4.9,1,10.2,2,16.1,3.2c5.9,1.2,11.7,2.7,17.4,4.7c5.7,1.9,11,4.5,16,7.8c4.9,3.2,8.9,7.6,11.8,12.7c3,5.2,4.4,11.7,4.5,19.5
				c0,8.9-2.7,17.6-7.7,24.9c-5.2,7.6-12.8,13.6-23,18.2C748.2,152.7,735.4,155,720.1,155z"/>
			<path class="st6" d="M859.2,155c-12.1,0-24.2-1.4-36-4.2c-11.6-2.8-21.1-6.5-28.6-11l16.1-36.4c7.4,4.3,15.4,7.6,23.6,9.8
				c8.2,2.4,16.7,3.7,25.3,3.7c3.8,0.1,7.6-0.3,11.3-1c2.2-0.4,4.3-1.3,6-2.8c1.2-1.1,1.9-2.7,1.9-4.3c0-2.7-1.5-4.8-4.5-6.3
				c-3.7-1.8-7.7-3.1-11.8-3.9c-4.9-1.1-10.2-2.2-16-3.4c-5.9-1.2-11.7-2.8-17.5-4.8c-5.7-1.9-11.1-4.5-16.1-7.8
				c-4.9-3.3-8.9-7.7-11.8-12.8c-3-5.3-4.5-11.9-4.5-19.8c-0.1-9,2.6-17.7,7.7-25.1c5.2-7.5,12.8-13.6,23.1-18.1S850.7,0,866,0
				c10,0,19.9,1.1,29.6,3.2c9.2,1.9,18,5.2,26.3,9.7l-15,36.2c-6.8-3.5-13.9-6.2-21.3-8.3c-6.5-1.8-13.2-2.7-20-2.8
				c-3.9-0.1-7.7,0.3-11.4,1.3c-2.3,0.5-4.4,1.7-6,3.4c-1.1,1.3-1.8,2.9-1.8,4.7c0,2.5,1.5,4.5,4.4,6c3.7,1.7,7.7,3,11.8,3.7
				c4.9,1,10.2,2,16.1,3.2c5.9,1.2,11.7,2.7,17.4,4.7c5.7,1.9,11,4.5,16,7.8c4.9,3.2,8.9,7.6,11.8,12.7c3,5.2,4.4,11.7,4.4,19.5
				c0,8.9-2.6,17.6-7.7,24.9c-5.2,7.6-12.8,13.6-23,18.2S874.5,155,859.2,155z"/>
		</g>
	</g>
</g>
</svg>
