<?xml version="1.0" encoding="utf-8"?>
<!-- Generator: Adobe Illustrator 25.0.0, SVG Export Plug-In . SVG Version: 6.00 Build 0)  -->
<svg version="1.1" id="Camada_1" xmlns="http://www.w3.org/2000/svg" xmlns:xlink="http://www.w3.org/1999/xlink" x="0px" y="0px"
	 viewBox="0 0 50 50" style="enable-background:new 0 0 50 50;" xml:space="preserve">
<style type="text/css">
	.st0{fill:#1351B4;}
</style>
<g>
	<path class="st0" d="M43.8,18.3L21,5.1c-0.3-0.2-0.8-0.2-1.1,0L6.2,13c-0.3,0.2-0.3,0.5,0,0.7L29,26.9c0.3,0.2,0.8,0.2,1.1,0
		L43.8,19C44.1,18.8,44.1,18.5,43.8,18.3z M31.9,23.8c-0.1-0.1-0.3-0.2-0.5-0.3c-1.2-0.7-3-0.7-4.2,0c-0.1,0-0.2,0.1-0.2,0.2
		l-15.4-8.9c0.1-0.1,0.3-0.1,0.4-0.2c1.2-0.7,1.1-1.8,0-2.4c-0.1-0.1-0.3-0.1-0.4-0.2L18,8.3c0.1,0.1,0.2,0.2,0.3,0.2
		c1.2,0.7,3,0.7,4.2,0c0.1-0.1,0.2-0.2,0.3-0.2l15.4,8.9c-0.2,0.1-0.4,0.2-0.6,0.3c-1.2,0.7-1.1,1.8,0,2.4c0.2,0.1,0.4,0.2,0.6,0.3
		L31.9,23.8z M33.8,20.5l-1,0.6c-0.2,0.1-0.4,0.1-0.6,0l-1.8-1c-0.2-0.1-0.2-0.2,0-0.3l1-0.6c0.2-0.1,0.4-0.1,0.6,0l1.8,1
		C33.9,20.2,33.9,20.4,33.8,20.5z M19.6,12.3l-1,0.6c-0.2,0.1-0.4,0.1-0.6,0l-1.8-1c-0.2-0.1-0.2-0.2,0-0.3l1-0.6
		c0.2-0.1,0.4-0.1,0.6,0l1.8,1C19.7,12.1,19.7,12.2,19.6,12.3z M42.2,22.4l1.8,1l-14.3,8.3l-0.5-0.3L28,30.6L6,17.9l1.8-1l22,12.7
		L42.2,22.4z M28,35.1L6,22.4l1.8-1l22,12.7l12.4-7.2l1.8,1l-14.2,8.3l-0.5-0.3L28,35.1z M42.2,31.2l1.8,1l-14.3,8.3l-0.5-0.3
		L28,39.5L6,26.8l1.8-1l22,12.7L42.2,31.2z M42.2,35.7l1.8,1L29.8,45l-0.5-0.3L28,44L6,31.2l1.8-1l22,12.7 M29.5,13.4
		c-2.5-1.5-6.6-1.5-9.1,0c-2.5,1.5-2.5,3.8,0,5.3c2.5,1.5,6.6,1.5,9.1,0C32.1,17.2,32,14.8,29.5,13.4z M24.3,16.8h-1.8v-1v-1l1.8,0
		v1l4,0v1L24.3,16.8z"/>
</g>
</svg>
