<?xml version="1.0" encoding="utf-8"?>
<!-- Generator: Adobe Illustrator 25.0.0, SVG Export Plug-In . SVG Version: 6.00 Build 0)  -->
<svg version="1.1" id="Camada_1" xmlns="http://www.w3.org/2000/svg" xmlns:xlink="http://www.w3.org/1999/xlink" x="0px" y="0px"
	 viewBox="0 0 50 50" style="enable-background:new 0 0 50 50;" xml:space="preserve">
<style type="text/css">
	.st0{fill-rule:evenodd;clip-rule:evenodd;fill:#1351B4;}
</style>
<path class="st0" d="M23.8,5.2c0.8-0.3,1.7-0.3,2.5,0l11.9,4.1c1,0.3,1.8,1.1,2.3,2.1c5.2,11.9,0.3,25.9-11.2,31.8l-3,1.5
	c-0.8,0.4-1.8,0.4-2.6,0l-3-1.5C9.3,37.3,4.4,23.3,9.6,11.4c0.4-1,1.3-1.8,2.3-2.1L23.8,5.2z M24.8,8.5c0.1,0,0.1,0,0.2,0V25H11.2
	c-0.7-4-0.3-8.3,1.4-12.2c0-0.1,0.1-0.2,0.3-0.2L24.8,8.5z M25,41.5l2.8-1.4c6-3.1,9.9-8.8,11-15.1H25V41.5z"/>
</svg>
