<?xml version="1.0" encoding="utf-8"?>
<!-- Generator: Adobe Illustrator 25.0.0, SVG Export Plug-In . SVG Version: 6.00 Build 0)  -->
<svg version="1.1" id="Camada_1" xmlns="http://www.w3.org/2000/svg" xmlns:xlink="http://www.w3.org/1999/xlink" x="0px" y="0px"
	 viewBox="0 0 50 50" style="enable-background:new 0 0 50 50;" xml:space="preserve">
<style type="text/css">
	.st0{fill:#1351B4;}
</style>
<g>
	<path class="st0" d="M41.9,41.9L41,39.4c-1.6-4.7-5.9-7.9-10.9-8.1c-0.4,0.3-0.9,0.6-1.4,0.9c-0.7,1.9-3.1,2.4-4.5,0.9
		c-1.6-0.1-3.2-0.8-4.5-1.8c-4.9,0.2-9.3,3.4-10.9,8.1l-0.9,2.5C7.9,42.6,8,43.4,8.4,44c0.4,0.6,1.2,1,1.9,1h29.3
		c0.8,0,1.5-0.4,1.9-1C42,43.4,42.1,42.6,41.9,41.9z"/>
	<path class="st0" d="M28.3,29.3c2.9-2,4.9-6.5,4.9-10.8c0-12.2-16.3-12.2-16.3,0c0,5.2,3,10.7,6.8,11.7c0.4-1.1,1.4-1.8,2.6-1.8
		C27.1,28.4,27.8,28.8,28.3,29.3z"/>
	<path class="st0" d="M13.3,23.7c0.4,1.6,2.6,1.1,2.6-0.3c0-5.9,0.3-6.4-0.5-7.1c1.8-11.1,17.3-11,19.2,0c-0.8,0.6-0.5,1.2-0.5,7.1
		c0,0.5,0.2,0.8,0.6,1.1c0,4.6-1.9,4.3-7.4,5.8c-0.9-0.9-2.4-0.3-2.4,0.9c0,1.6,2.3,2,2.7,0.4c4.5-1.2,8.5-1.6,8.5-6.1v-0.9
		c0.3-0.2,0.6-0.5,0.7-0.9c4.3-0.1,4.3-6.6,0-6.7c-0.1-0.4-0.3-0.6-0.6-0.8c0.1-1.3-0.2-3.1-0.9-4.8c-5.3-11-21-6.7-21.2,3.9
		c0,0.4,0,0.6,0,0.8c-0.3,0.2-0.5,0.5-0.6,0.8c-1.8,0-3.3,1.5-3.3,3.3C10,22.2,11.5,23.6,13.3,23.7z"/>
</g>
</svg>
