<?xml version="1.0" encoding="utf-8"?>
<!-- Generator: Adobe Illustrator 25.0.0, SVG Export Plug-In . SVG Version: 6.00 Build 0)  -->
<svg version="1.1" id="Camada_1" xmlns="http://www.w3.org/2000/svg" xmlns:xlink="http://www.w3.org/1999/xlink" x="0px" y="0px"
	 viewBox="0 0 50 50" style="enable-background:new 0 0 50 50;" xml:space="preserve">
<style type="text/css">
	.st0{fill-rule:evenodd;clip-rule:evenodd;fill:#FFFFFF;}
</style>
<path class="st0" d="M39.2,10.8C35.4,7.1,30.4,5,25.1,5c-11,0-19.9,8.9-19.9,19.8c0,3.5,0.9,6.9,2.7,9.9L5,45l10.6-2.8
	c2.9,1.6,6.2,2.4,9.5,2.4l0,0c11,0,19.9-8.9,19.9-19.8C45,19.6,42.9,14.5,39.2,10.8 M25.1,41.3L25.1,41.3c-3,0-5.9-0.8-8.4-2.3
	L16,38.7l-6.3,1.6l1.7-6.1L11,33.6c-1.7-2.6-2.5-5.7-2.5-8.8c0-9.1,7.4-16.5,16.6-16.5c4.4,0,8.6,1.7,11.7,4.8s4.9,7.3,4.8,11.7
	C41.6,33.9,34.2,41.3,25.1,41.3 M34.2,29c-0.5-0.2-2.9-1.4-3.4-1.6s-0.8-0.2-1.1,0.2c-0.3,0.5-1.3,1.6-1.6,1.9
	c-0.3,0.3-0.6,0.4-1.1,0.1c-0.5-0.2-2.1-0.8-4-2.5c-1.5-1.3-2.5-2.9-2.8-3.4s0-0.8,0.2-1s0.5-0.6,0.7-0.9s0.3-0.5,0.5-0.8
	s0.1-0.6,0-0.9c-0.1-0.2-1.1-2.7-1.5-3.7s-0.8-0.8-1.1-0.8c-0.3,0-0.6,0-1,0c-0.5,0-1,0.2-1.3,0.6C16.2,16.8,15,18,15,20.4
	s1.8,4.8,2,5.1s3.5,5.3,8.5,7.5c1.2,0.5,2.1,0.8,2.8,1c1.2,0.4,2.3,0.3,3.1,0.2c1-0.1,2.9-1.2,3.4-2.4s0.4-2.1,0.3-2.4
	C35,29.3,34.7,29.2,34.2,29"/>
</svg>
